<?xml version="1.0" encoding="UTF-8" standalone="no"?>
<!-- This Source Code Form is subject to the terms of the Mozilla Public
   - License, v. 2.0. If a copy of the MPL was not distributed with this
   - file, You can obtain one at http://mozilla.org/MPL/2.0/. -->

<svg
   xmlns:dc="http://purl.org/dc/elements/1.1/"
   xmlns:cc="http://creativecommons.org/ns#"
   xmlns:rdf="http://www.w3.org/1999/02/22-rdf-syntax-ns#"
   xmlns:svg="http://www.w3.org/2000/svg"
   xmlns="http://www.w3.org/2000/svg"
   xmlns:sodipodi="http://sodipodi.sourceforge.net/DTD/sodipodi-0.dtd"
   xmlns:inkscape="http://www.inkscape.org/namespaces/inkscape"
   width="32"
   height="32"
   viewBox="0 0 32 32"
   id="svg2"
   version="1.1"
   inkscape:version="0.48.5 r10040"
   sodipodi:docname="identity-icons-brand.svg">
  <metadata
     id="metadata10">
    <rdf:RDF>
      <cc:Work
         rdf:about="">
        <dc:format>image/svg+xml</dc:format>
        <dc:type
           rdf:resource="http://purl.org/dc/dcmitype/StillImage" />
        <dc:title></dc:title>
      </cc:Work>
    </rdf:RDF>
  </metadata>
  <defs
     id="defs8" />
  <sodipodi:namedview
     pagecolor="#ffffff"
     bordercolor="#666666"
     borderopacity="1"
     objecttolerance="10"
     gridtolerance="10"
     guidetolerance="10"
     inkscape:pageopacity="0"
     inkscape:pageshadow="2"
     inkscape:window-width="1920"
     inkscape:window-height="1023"
     id="namedview6"
     showgrid="false"
     inkscape:zoom="7.375"
     inkscape:cx="16.542372"
     inkscape:cy="16"
     inkscape:window-x="0"
     inkscape:window-y="0"
     inkscape:window-maximized="1"
     inkscape:current-layer="svg2" />
  <path
     inkscape:connector-curvature="0"
     id="path3012"
     d="m 16.8856,29.33772 c -0.6875,-0.27741 -1.25,-2.05344 -1.25,-3.94673 l 0,-3.44235 -2.95034,1.52568 c -3.44334,1.78062 -6.40682,1.94008 -9.1154,0.4905 -2.8749,-1.5386 -2.4317,-3.10445 0.55706,-1.96812 1.37022,0.52096 3.10927,0.71006 3.86455,0.42024 C 9.4803,21.84562 11.6356,17.76018 11.6356,15.50937 11.6356,13.64683 23.1311,2 24.96944,2 c 0.79452,0 2.39225,0.7875 3.55051,1.75 2.91512,2.42245 1.87436,6.2063 -1.75098,6.366 -1.53365,0.0676 -1.93811,0.30014 -0.96851,0.55693 2.72304,0.72118 3.03587,3.0881 0.34004,2.57276 -2.10448,-0.4023 -2.30397,-0.0959 -2.21752,3.40612 0.0538,2.18091 0.75401,4.34288 1.61605,4.98998 1.2781,0.95939 1.30787,1.39868 0.18638,2.75 C 24.99132,25.2763 23.82329,26 23.12979,26 c -0.69351,0 -1.49628,0.9 -1.78394,2 -0.50897,1.94629 -1.9104,2.36661 -4.46025,1.33772 z m 3.43311,-7.52522 c -0.31922,-0.79773 -0.55618,-0.56078 -0.60416,0.60417 -0.0434,1.05416 0.19292,1.64479 0.52522,1.3125 0.33229,-0.33229 0.36781,-1.19479 0.0789,-1.91667 z"
     style="fill:#b3b3b3" />
</svg>
